<?xml version="1.0" standalone="no"?>
<!DOCTYPE svg PUBLIC "-//W3C//DTD SVG 1.1//EN" "http://www.w3.org/Graphics/SVG/1.1/DTD/svg11.dtd" >
<svg xmlns="http://www.w3.org/2000/svg">
<metadata></metadata>
<defs>
<font id="rubberneckregular" horiz-adv-x="1116" >
<font-face units-per-em="2048" ascent="1638" descent="-410" />
<missing-glyph horiz-adv-x="1292" />
<glyph horiz-adv-x="2048" />
<glyph horiz-adv-x="2048" />
<glyph unicode="&#xd;" horiz-adv-x="1292" />
<glyph unicode=" "  horiz-adv-x="1292" />
<glyph unicode="&#x09;" horiz-adv-x="1292" />
<glyph unicode="&#xa0;" horiz-adv-x="1292" />
<glyph unicode="!" horiz-adv-x="1114" d="M0 1004q0 283 172 458.5t453 175.5q344 0 432 -385l-2 -6q16 -83 18 -155l2 -62q2 -90 -16 -225q-25 -168 -27 -221l-6 -6q-29 -236 -160 -373q-141 -150 -370 -150q-201 0 -361 381q-135 322 -135 568zM401 -227q0 123 37 168q27 35 148 79l4 5l10 12q41 10 37 10l6 -2 q154 -20 238 -192v-66q0 -80 -82 -139q-74 -55 -156 -56q-76 0 -156 52q-86 57 -86 129z" />
<glyph unicode="&#x22;" horiz-adv-x="1179" d="M0 872q0 104 41 240q55 186 61 225q16 14 48 15l20 -9q29 6 72 0q147 -23 188 -45q76 -43 76 -165q0 -14 -4 -41t-4 -41q0 -150 -82 -306q-96 -184 -232 -184q-131 0 -168 101q-16 45 -16 210zM608 965q0 90 8 204q12 160 31 199q10 23 53 39q37 16 66 16q182 0 274 -116 q82 -104 82 -291q0 -133 -61 -254q-74 -146 -195 -146q-137 0 -204 111q-53 90 -54 238z" />
<glyph unicode="#" horiz-adv-x="1693" d="M2 268q0 100 82 193q72 82 174 125q-125 43 -149 59q-70 45 -70 133q0 145 154 215q117 53 278 51q2 16 2 109q0 315 291 315q109 0 174 -159q25 86 99.5 150.5t160.5 64.5q172 0 172 -262q0 -27 -2 -54l2 -6q-2 -41 -20 -102q292 -39 292 -203q0 -143 -188 -266l2 -4 l-8 2l-8 -8q96 -18 135 -43q61 -39 61 -115q0 -111 -96 -189q-45 -35 -192 -108l-13 2v-12q0 -106 -39 -201l2 -6q-23 -80 -85 -133.5t-144 -53.5q-57 0 -117 45q-10 6 -96 84v5q-43 57 -53 100q-119 -233 -293 -234q-229 0 -240 340q-156 49 -161 54q-106 45 -107 112z M688 602q0 -70 80 -115q70 -39 145 -38q78 0 139.5 51t61.5 127q0 59 -61.5 113.5t-120.5 56.5l-4 4h-21q-96 0 -153 -51q-66 -57 -66 -148z" />
<glyph unicode="$" horiz-adv-x="1253" d="M0 70q0 279 348 346q-37 33 -133 88q-82 47 -115 90q-49 63 -49 164q0 166 127 309q106 121 275 201l2 47q2 70 92 121q78 47 153 47q109 0 183 -58q82 -63 78 -170q86 2 174 -38q106 -49 102 -127q-10 -184 -94 -261q-33 -29 -238 -131q119 -82 158 -123q78 -82 78 -180 q0 -205 -82 -307q-41 -51 -254 -197l2 -18q-53 -82 -86 -109q-51 -43 -131 -43q-88 0 -135 52q-39 41 -62 129q-74 -10 -96 -11q-104 0 -188 37q-109 49 -109 142z" />
<glyph unicode="%" horiz-adv-x="1427" d="M0 997q0 123 127 244t252 121q133 0 272 -143q113 178 174 239q119 117 265 117q109 0 199.5 -79t90.5 -187q0 -80 -135 -361q-119 -246 -192 -362l73 4q121 6 177 -51q16 -19 92 -156v-107q0 -145 -123 -252.5t-271 -107.5q-84 0 -159 37q-88 43 -107 115 q-66 -121 -177.5 -191t-246.5 -70q-74 0 -116 54q-39 47 -39 123q0 86 120 335q113 233 187 324l-84 -4q-166 -8 -272.5 92t-106.5 266zM367 958q0 -94 127 -94q18 0 22 4q29 2 68 32.5t39 57.5q0 43 -29 73t-72 32h-14q-10 -2 -14 -2t-11.5 2t-9.5 2q-45 0 -75.5 -30.5 t-30.5 -76.5zM862 303q0 -84 96 -84q55 0 105.5 35t50.5 88q0 45 -29.5 79t-74.5 34h-15q-8 -2 -20 -21q-57 -12 -88 -57q-25 -37 -25 -74z" />
<glyph unicode="&#x26;" horiz-adv-x="1538" d="M0 979q0 254 248 461q236 199 495 198q164 0 314.5 -169t150.5 -334q0 -100 -45 -224q-49 -137 -116 -192q45 -59 73 -121q88 29 176 29q96 0 162 -43q76 -49 76 -140q0 -4 -6 -43q-4 -27 2 -43q-59 -154 -146 -243q94 -82 95 -236q0 -215 -209 -215q-139 0 -269 129 q-201 -203 -421 -203q-137 0 -246 66l-8 -2q-135 82 -193 145q-82 92 -82 224q0 143 105 378v7q12 29 112 155q-125 57 -196.5 168t-71.5 248zM641 850q0 -47 47 -74q39 -23 90 -22q140 -1 140 116q0 12 -29 41l-29 29q-18 61 -92 61t-109 -86q-18 -43 -18 -65zM707 391 q0 -45 36.5 -71.5t83.5 -26.5q76 0 129 47l5 12q43 23 43 76l4 18q0 45 -34 75t-81 30q-14 0 -49 -19q-14 -2 -45 -12q-33 -16 -62.5 -56t-29.5 -73z" />
<glyph unicode="'" horiz-adv-x="561" d="M0 872q0 104 41 240q55 186 61 225q16 14 48 15l20 -9q29 6 72 0q147 -23 188 -45q76 -43 76 -165q0 -14 -4 -41t-4 -41q0 -150 -82 -306q-96 -184 -232 -184q-131 0 -168 101q-16 45 -16 210z" />
<glyph unicode="(" horiz-adv-x="911" d="M2 459q0 332 96 563q94 225 328 471q139 145 250 145q137 0 217 -82t80 -219q0 -74 -129 -231q-29 -35 -232 -260q-121 -133 -110 -164q-29 -57 -29 -145q0 -152 113 -306q18 -25 211 -229q113 -119 112 -197q0 -96 -86 -157q-78 -55 -178 -56q-315 0 -493 289 q-150 244 -150 578z" />
<glyph unicode=")" horiz-adv-x="1003" d="M4 1337q0 -74 127 -231q25 -31 231 -260q121 -133 111 -164q31 -57 31 -145q0 -152 -115 -306q-20 -27 -211 -229q-113 -119 -112 -197q0 -96 88 -157q78 -55 178 -56q313 0 491 289q150 244 150 578q0 336 -94 565q-92 221 -328 469q-137 145 -252 145q-137 0 -216 -82 t-79 -219z" />
<glyph unicode="*" horiz-adv-x="868" d="M0 670q0 53 55 90q35 23 109 51q68 25 80 45q10 12 59 137q33 82 96 111q61 -6 101 -86q45 -92 49 -96l14 2q39 2 115 -17.5t110 -19.5q10 0 21.5 -13.5t11.5 -23.5q0 -27 -59 -92q-43 -49 -86 -84l-8 -45q0 -4 8 -25q6 -16 0 -26q33 -53 33 -156q0 -18 -7 -53 q-43 -31 -65 -31q-31 0 -91.5 40t-92.5 40q-2 0 -96.5 -50.5t-135.5 -50.5l-24 5q-29 35 -31 167q0 39 -83 107t-83 74z" />
<glyph unicode="+" horiz-adv-x="1138" d="M0 705q0 115 44 170t157 71q8 0 86 19q51 12 86 10q2 70 4 139q8 80 58 120t134 40q229 0 230 -168q0 -39 -11 -90q316 -4 316 -170q0 -137 -107 -193q-51 -27 -227 -57l2 -21q2 -29 2 -55q0 -221 -188 -221q-104 0 -148 16q-68 27 -73 113l-11 162l-4 4q-70 2 -210 14.5 t-140 96.5z" />
<glyph unicode="," horiz-adv-x="755" d="M0 135q0 111 74 205q84 109 186 102l35 -2q0 -23 55 -22q86 0 191.5 -80t136.5 -162q12 -37 8 -41l8 -10q-2 -14 2 -43t4 -39q0 -178 -104 -309q-111 -141 -285 -142q-76 0 -141 35q-80 41 -80 109q0 35 50 102.5t50 71.5q0 16 -49 47q-66 41 -92 68q-49 49 -49 110z" />
<glyph unicode="-" d="M2 719q0 82 31 117q18 20 75.5 39.5t77.5 37.5q8 2 54 15q35 10 55 8l6 6q39 4 193 27q123 18 190 18q133 0 231 -53q121 -63 121 -186q0 -129 -43 -185q-102 -131 -684 -131q-176 0 -241.5 57.5t-65.5 229.5z" />
<glyph unicode="." horiz-adv-x="808" d="M0 -86q0 164 117 250q86 66 266 98l10 12q106 -14 152 -32q66 -27 129 -95q80 -87 80 -167q0 -139 -120 -263.5t-259 -124.5q-375 0 -375 322z" />
<glyph unicode="/" horiz-adv-x="989" d="M0 -180q0 61 219 735q217 666 270 774l-2 6q0 49 84 146l111 127q90 31 152 30q123 0 165 -67q33 -51 33 -176q0 -203 -260 -875q-258 -664 -395 -831q-31 -39 -92.5 -67t-110.5 -28q-174 0 -174 226z" />
<glyph unicode="0" horiz-adv-x="1714" d="M0 528q0 252 135 514q131 254 334 416q227 180 477 180q307 0 531 -282q210 -269 206 -582l-2 -137q-6 -418 -243 -717q-258 -326 -664 -326q-350 0 -573 302q-201 270 -201 632zM518 264q0 -109 154 -108q6 0 8 4q12 -4 25 -4q55 0 104 40t49 93q0 86 -131 127 q-31 10 -33 12q-68 0 -122 -48t-54 -116z" />
<glyph unicode="1" horiz-adv-x="1345" d="M0 897q0 258 213 496q217 246 471 245q276 0 459 -372q149 -308 149 -613q0 -301 -90 -557q-117 -332 -342 -422l-6 -8q-57 -25 -117 -47q-68 -27 -121 -27q-254 0 -385 172q-117 154 -116 416q0 115 207 557l-86 -2q-86 -2 -154 37q-82 45 -82 125z" />
<glyph unicode="2" horiz-adv-x="1341" d="M2 104q0 168 133 383t283 304q-20 2 -96 18h-5q-158 43 -213 82q-96 68 -96 203q0 231 359 401q301 143 551 143q166 0 278.5 -98t112.5 -262q0 -182 -158 -397q-61 -82 -293 -330l4 -4l180 -37q59 -18 164 -111l-2 -4q74 -104 74 -250q0 -270 -447 -499h-8 q-131 -53 -250 -54q-250 0 -405 129q-166 137 -166 383z" />
<glyph unicode="3" horiz-adv-x="1314" d="M-2 1233q0 61 50 152.5t104 111.5q39 76 258 115q152 27 315 26q207 0 356 -122q158 -133 158 -336q0 -137 -59 -256q-59 -127 -170 -199q172 -88 223 -169.5t51 -274.5q0 -285 -235 -490q-227 -199 -514 -199q-170 0 -304 70q-156 80 -192 232l-4 4q-12 49 -12 108 q0 135 127 252q20 18 231 168q-90 23 -142.5 91.5t-52.5 160.5q0 53 46.5 129t93.5 102l-4 4q-125 4 -224.5 99.5t-99.5 220.5z" />
<glyph unicode="4" horiz-adv-x="1771" d="M0 838q0 252 123 473q147 264 379 264q98 0 185 -70.5t112 -167.5l6 -4q47 133 173 220t269 87q141 0 248 -143q96 -131 96 -278q0 -186 -39 -285q0 -4 32 -12.5t65 -24.5q49 -25 61 -45q51 -90 51 -168q0 -154 -123 -238q-121 -63 -241 -129q39 -90 39 -200 q0 -223 -113 -367q-123 -156 -340 -156q-209 0 -309 156q-82 129 -82 350q0 92 14 191q-115 14 -340 49q-135 25 -198 129q-68 113 -68 369z" />
<glyph unicode="5" horiz-adv-x="1415" d="M2 928q0 150 23 215l4 4q16 137 110 266l-4 6q25 43 92 84q23 8 17 13q154 123 456 122q174 0 322 -45q209 -63 209 -192q0 -147 -129 -271q-109 -102 -266 -155q291 -74 391 -146q164 -118 164 -374q0 -49 -18.5 -143.5t-18.5 -143.5q0 -225 -293 -410 q-262 -166 -496 -166q-449 0 -448 482q0 162 127 280q66 59 258 172q-10 4 -228 66q-145 41 -204 110q-68 78 -68 226z" />
<glyph unicode="6" horiz-adv-x="1613" d="M0 352q0 223 106.5 520t270.5 498q217 268 471 268q182 0 305 -71q111 -66 221 -224q-8 -162 -35 -213q-23 -43 -145 -149q47 -6 72 -10q51 -10 65 -25q121 -33 197 -168q67 -119 67 -258v-59q0 -475 -442 -735q-174 -102 -182 -109q-94 -27 -199 -27q-344 0 -558 209 t-214 553zM836 643q0 -53 61 -102q8 -8 23 -19q8 -2 26 -2q129 0 129 129q0 49 -45 74q-8 4 -90 31q-18 -4 -57 -15q-6 -4 -19 -12q-29 -20 -28 -84z" />
<glyph unicode="7" horiz-adv-x="1576" d="M0 967q0 115 12 141l-4 6q51 236 285 381q213 135 465 129q0 -4 6 -4q10 0 34.5 8t37.5 8q80 0 176 -26l168 -47q201 -160 278 -312q94 -182 94 -422q0 -276 -108 -555q-113 -293 -305 -473q-221 -207 -500 -207q-205 0 -302 91.5t-97 294.5q0 147 129 378 q111 199 235 332l-160 -4q-129 -4 -276 74q-168 88 -168 207z" />
<glyph unicode="8" horiz-adv-x="1613" d="M0 188q0 270 322 541q-182 106 -197 297q37 82 76 164q78 170 116 209q137 139 381 207l2 6q125 18 197 18q221 0 422 -84q262 -111 258 -305l4 -4l-4 -117q-8 -213 -260 -430q135 -111 170 -162q59 -86 59 -229q0 -223 -164 -403q10 -96 -274 -207q-254 -98 -373 -99 q-291 0 -499 152q-236 170 -236 446zM453 483q0 -14 6 -22q-2 -6 -2 -12q0 -37 55 -77t92 -40q68 0 120 44t52 109q0 61 -43 103.5t-104 42.5q-2 0 -8.5 2t-10.5 2q-63 0 -110 -44t-47 -108zM522 965q0 -43 47 -70q41 -25 86 -25q53 0 93 25q47 31 47 80q0 55 -15 72 q-43 51 -121 51q-41 0 -89 -46t-48 -87z" />
<glyph unicode="9" horiz-adv-x="1759" d="M4 707q0 283 166 507q154 209 420 334q205 96 366 97q76 0 99 -27q16 23 43 22q25 0 65 -28h11q248 -49 409 -305q147 -233 148 -496q0 -256 -117 -664l2 -8q-80 -227 -266 -381q-199 -166 -428 -166q-61 0 -95 19q-6 2 -71 55v6q-78 55 -78 174q0 55 16 115q-2 2 -6 2 t-8 -4q-365 29 -520.5 205t-155.5 543zM668 408q0 -59 38.5 -101.5t98.5 -42.5q53 0 105.5 29t52.5 78q0 8 5 23.5t5 23.5q0 72 -41 123t-111 51q-57 0 -82 -21q-16 -14 -43.5 -77.5t-27.5 -85.5z" />
<glyph unicode=":" horiz-adv-x="608" d="M-2 602q0 18 27 88q57 147 200 205q51 20 45 20l23 -4l18 -18q104 -23 150 -57q63 -49 63 -142v-41q0 -39 -43 -127l2 -10q-55 -115 -227 -115q-92 0 -170 54q-88 59 -88 147zM4 90q0 92 68.5 178t156.5 86q315 0 316 -198q0 -98 -87.5 -184.5t-185.5 -86.5l-18 6 q-10 -4 -23 -4q-63 0 -145 71t-82 132z" />
<glyph unicode=";" horiz-adv-x="718" d="M0 643q0 170 262 225q8 0 26.5 8.5t30.5 8.5q86 0 148 -43q70 -47 70 -129q0 -195 -179 -264q-5 -3 -114 -3q-98 0 -166 48q-78 53 -78 149zM47 102q0 98 114.5 190.5t215.5 92.5q10 0 30.5 -4t30.5 -4q41 -12 86 -37q66 -35 107 -125q37 -80 37 -162q0 -170 -112 -292.5 t-280 -122.5q-125 0 -124 98q0 25 37.5 79t37.5 81q0 47 -90 103t-90 103z" />
<glyph unicode="&#x3c;" horiz-adv-x="1021" d="M-2 217q0 115 195 434q201 330 294 330q25 0 73 8t73 8q-8 0 55 -6l10 -6q35 6 74 -36t39 -77q0 -182 -98 -356q-23 -25 -56 -82l203 -125q94 -80 94 -205q0 -88 -106 -133q-78 -33 -178 -32q-72 0 -236 52t-205 52q-47 20 -139 65.5t-92 108.5z" />
<glyph unicode="=" horiz-adv-x="1091" d="M2 371v26q0 70 21.5 101.5t87.5 50.5q55 16 75 37q8 2 54 14q35 10 55 8l6 6q39 4 195 27q125 18 186 18q125 0 227 -51q127 -63 127 -176q0 -225 -727 -225q-252 0 -289 119q-4 12 -12 26l-2 -2q-2 4 -4 21zM2 883v26q0 70 21.5 101.5t87.5 50.5q55 16 75 37q8 2 54 14 q35 10 55 8l6 6q39 4 195 27q125 18 186 18q125 0 227 -51q127 -63 127 -176q0 -225 -727 -225q-252 0 -289 119q-4 12 -12 26l-2 -2q-2 4 -4 21z" />
<glyph unicode="&#x3e;" horiz-adv-x="913" d="M2 723q0 117 84 187.5t201 70.5q205 0 387 -139q195 -150 194 -348q0 -246 -237 -410q-215 -150 -473 -150q-49 0 -84 25q-41 29 -41 76q0 168 264 368q-35 37 -118 97.5t-118 97.5q-59 63 -59 125z" />
<glyph unicode="?" horiz-adv-x="1327" d="M0 1163q0 236 236 367q195 109 448 108q223 0 424 -151q219 -166 219 -381q0 -117 -74 -260q-88 -170 -192 -152q-25 -27 -64 -26q-27 0 -110 -35q35 -125 35 -152q0 -117 -125 -202q-115 -78 -240 -78q-100 0 -203 69q-115 76 -114 170q0 121 88 213l178 150 q-35 0 -101.5 5t-101.5 5q-125 0 -217 115q-86 109 -86 235zM262 -195q0 100 77 205t173 115l6 6q92 25 105 25q74 0 102 -27q102 -6 155.5 -73.5t53.5 -172.5q0 -111 -116.5 -201t-229.5 -90q-123 0 -211 46q-115 57 -115 167z" />
<glyph unicode="@" horiz-adv-x="1896" d="M2 270q0 532 281 926q317 444 831 444q319 0 561 -278q232 -268 232 -592q0 -217 -129 -385q-141 -182 -353 -182q-152 0 -256 33q-115 37 -223 126q-137 -41 -235 -40q-55 0 -117 30l-109 54q-61 96 -61 137q0 127 123 264t250 137q166 0 252 -108q37 -66 112 -195 q61 -100 195 -96l65 2q63 53 64 155q0 195 -187 334q-172 129 -374 129q-213 0 -385 -182t-172 -397q0 -166 141 -277q131 -102 303 -102q51 0 98 10l25 -14l27 6q86 -47 174 -92q66 -49 65 -187q0 -154 -178 -252q-152 -84 -320 -84q-115 0 -237 35q-147 41 -205 111 q-104 4 -188 221q-70 180 -70 309zM633 592q0 -45 34.5 -71.5t82.5 -26.5q213 -1 213 122q0 27 -37 78q-53 72 -138 72q-4 0 -18 8q-57 -16 -97 -69.5t-40 -112.5z" />
<glyph unicode="A" horiz-adv-x="2160" d="M2 152q0 352 154 704q145 338 401 598q33 33 96 80q76 57 103 57q35 0 128 24.5t140 24.5q322 0 594 -227q242 -201 387 -520.5t145 -634.5q0 -238 -114 -426q-132 -218 -357 -238l-10 5q-215 0 -385 84q-207 102 -242 294q-108 -45 -123 -45h-1q-178 -254 -365 -272 q-49 4 -145 18q-158 31 -265 125q-141 125 -141 349zM829 518q0 -35 21 -74q4 -10 14 -26q14 0 43 -37q89 -49 183 -49q29 0 40 20l11 2q18 16 51 61.5t33 61.5q0 10 -3 30.5t-3 31.5q0 80 -53.5 126t-133.5 46q-23 0 -67 -11q-35 -8 -85.5 -76.5t-50.5 -105.5z" />
<glyph unicode="B" horiz-adv-x="1701" d="M2 518q0 156 14 193l-2 8q59 264 156 573l6 -2q4 4 21 33q59 102 149 190q51 49 227 91q148 34 243 34h5q305 0 559 -141q295 -165 295 -442v-11l-2 -90q-2 -111 -84 -268q-72 -137 -162 -233q113 -100 134 -129q47 -68 47 -183q0 -231 -275 -399q-242 -147 -489 -148 q-248 0 -398 66q-168 76 -303 264l2 6q-47 102 -59 136q-31 76 -41 139l6 12l-8 2q-41 98 -41 299zM754 639q0 -115 131 -115q153 0 153 129q0 47 -30 74q-11 10 -68 43q-18 8 -31 8q-55 0 -105 -42t-50 -97zM813 285q0 -111 145 -111q53 0 100.5 37t47.5 88q0 133 -105 133 q-25 8 -28 8q-23 0 -64 -19.5t-51 -19.5q-45 -53 -45 -116z" />
<glyph unicode="C" horiz-adv-x="1708" d="M0 584q0 319 254 645q264 338 575 375l9 6q25 2 116 18q74 12 115 12q276 0 438 -124q178 -139 179 -408q0 -211 -170 -379q-113 -111 -351 -242l2 -4q152 -29 248 -112q115 -98 115 -240q0 -240 -195 -393q-180 -141 -426 -141q-229 0 -471 106q-293 129 -332 320l-8 6 q-98 176 -98 555z" />
<glyph unicode="D" horiz-adv-x="1665" d="M0 1137q0 92 35 249q14 6 61 74t105 99q104 53 303 69l6 -4l113 14q369 0 688 -262q338 -277 338 -635q0 -272 -137.5 -541.5t-356.5 -430.5q-231 -171 -489 -171q-14 0 -29 1l-4 -2h-17q-204 0 -305 94q-94 88 -143 307h-4q-23 80 -23 108q0 174 -70.5 515.5 t-70.5 515.5zM508 420q0 -123 166 -123q184 0 184 195q0 51 -56.5 104t-109.5 53q-14 0 -39.5 -14t-27.5 -27q-51 -4 -86 -73q-31 -57 -31 -115z" />
<glyph unicode="E" horiz-adv-x="1564" d="M2 481q0 532 223 826q251 331 765 331h3q160 0 240 -24q137 -43 137 -168q0 -102 -86 -186q-43 -43 -172 -123q145 -29 254 -111q131 -98 131 -231q0 -377 -297 -496q37 -23 143 -70q88 -39 146 -84l10 -4q47 -90 47 -114q0 -106 -96 -205q-77 -80 -190 -133v-4 q-227 -90 -408 -91h-152l-4 5q-53 -6 -102 -7q-592 0 -592 889z" />
<glyph unicode="F" horiz-adv-x="1636" d="M2 403q0 221 125 508q119 266 279 445q201 223 399 227l4 4q179 52 270 52q12 0 23 -1q242 -23 305 -47q162 -61 162 -239q0 -188 -262 -299q133 -23 225 -195q82 -151 82 -301q0 -242 -158 -414q-147 -162 -391 -221l8 -63q0 -123 -98 -197q-88 -68 -215 -68 q-213 0 -324 72l-8 -2q-231 158 -322 305q-104 170 -104 434z" />
<glyph unicode="G" horiz-adv-x="1935" d="M0 344q0 324 157.5 623t424.5 481q280 192 603 192h3q186 0 319 -102q143 -111 144 -293q0 -125 -64 -246q-12 -25 -10 -28q-78 -133 -197 -211q-94 -63 -264 -117l-12 -41q0 -74 12 -110q20 12 63.5 70.5t67.5 76.5l13 2q23 23 100 41q68 16 113 16q180 0 303 -198 q108 -177 108 -361v-16q0 -213 -160 -369q-166 -162 -374 -162q-102 0 -187.5 51.5t-128.5 141.5q-41 -25 -123 -72q-113 -65 -245 -65h-4q-322 0 -496 188q-166 182 -166 508z" />
<glyph unicode="H" horiz-adv-x="2373" d="M2 461q0 1016 660 1016q166 0 289.5 -130t123.5 -296q0 -27 -2 -52q49 23 154 54q31 80 92 240.5t137 242.5q96 104 230 104h12q324 -12 491 -233q154 -201 154 -535q0 -78 -25.5 -229t-25.5 -229q0 -33 -88 -254v-13q-145 -297 -217 -380q-150 -174 -394 -175 q-213 0 -331 146q-107 128 -107 330v22l-111 -8l-8 -8v-9q0 -147 -134 -263q-138 -120 -292 -119q-365 0 -501 223q-106 172 -107 555z" />
<glyph unicode="I" horiz-adv-x="1069" d="M0 1202q0 106 111.5 231.5t218.5 139.5l4 4q27 8 108 39q63 24 108 24h3q178 0 326 -112q158 -121 157 -295q0 -188 -162 -320q-151 -125 -344 -125q-266 0 -383 74q-147 94 -147 340zM18 -55q0 639 275 768q51 25 121 30q106 10 123 11q14 27 57 28q217 -61 311 -219 q82 -139 82 -379q0 -90 -18 -186l2 -4q-57 -197 -158 -293q-115 -109 -307 -109q-487 0 -488 353zM942 1223l23 -2v4l-23 2v-4z" />
<glyph unicode="J" horiz-adv-x="1454" d="M0 16q0 248 111 371q41 47 204 135q111 59 111 158q0 84 -28.5 251t-28.5 251q0 203 104 327q113 131 313 131q76 0 156 -43q20 -10 137 -86h6q14 -10 129 -131l3 -8q31 -35 83 -131t58 -137q29 -12 53 -172q19 -125 19 -197q0 -309 -125 -590q-131 -293 -396 -438 q-12 -6 -67 -37q-45 -26 -63 -26h-1l-4 -4q-168 -45 -190 -46q-166 0 -348 31h-13q-29 20 -102.5 92t-95.5 84q-25 127 -25 215z" />
<glyph unicode="K" horiz-adv-x="2113" d="M2 797v247l10 89q8 4 27 129q4 41 67 159q2 16 19 33q20 66 117 117q86 47 161 47q223 0 353.5 -80t218.5 -281q201 174 209 181q137 113 225 149q123 51 297 51q188 0 302 -108.5t114 -294.5v2q-2 0 -21 -131l-8 -8l-41 -135q-33 -106 -51 -117q-25 -98 -119 -254 l-149 -244l2 -12q80 -98 104 -141q42 -74 42 -143q0 -11 -1 -23l4 -9q-37 -160 -121 -210l-4 -11q-68 -59 -186 -59q-111 0 -277 84q-152 78 -243 168l-4 -2q-55 -397 -412 -398q-387 0 -539 439q-96 279 -96 766z" />
<glyph unicode="L" horiz-adv-x="1495" d="M2 575q0 1065 590 1065q459 0 459 -411q0 -68 -31 -295q-33 -248 -57 -268q63 -12 102 -13q211 0 401 -229q37 -74 37 -158q1 -18 -30 -172q-174 -256 -322 -362q-188 -137 -459 -138q-690 0 -690 981z" />
<glyph unicode="M" horiz-adv-x="2691" d="M0 207q0 215 109 547q121 367 290 602q206 284 424 284h2q156 0 324 -92q182 -98 233 -233h7q283 319 573 319q356 0 551 -422q153 -330 153 -730v-5q0 -362 -114 -538q-144 -220 -486 -220q-135 0 -360 152q-59 -61 -182 -182q-100 -92 -242 -92q-109 0 -233.5 64.5 t-190.5 152.5q-160 -137 -178 -150q-102 -70 -219 -70q-238 0 -361 197q-100 162 -100 416z" />
<glyph unicode="N" horiz-adv-x="2213" d="M0 281q0 86 39 257t39 257q0 201 158 440q172 260 362 260q145 0 297 -70q162 -72 238 -184q47 397 360 397q362 0 543 -356q143 -283 143 -684v-45q0 -334 -117 -578q-154 -321 -442 -321h-2q-344 0 -651 194q-143 -137 -195 -172q-116 -79 -241 -79h-3q-309 0 -432 196 q-96 156 -96 488z" />
<glyph unicode="O" horiz-adv-x="1794" d="M2 406q0 279 137 565q135 281 350 463q243 204 516 204h3q350 0 569 -305q192 -268 192 -624q0 -434 -260 -762q-281 -352 -704 -353q-326 0 -564.5 243t-238.5 569zM604 354q0 -18 10.5 -51t12.5 -45q109 -53 184 -53q74 0 125 41t51 112q0 58 -76 156h-4q-10 25 -69 25 q-8 0 -25.5 5t-26.5 5q-66 0 -124 -64.5t-58 -130.5z" />
<glyph unicode="P" horiz-adv-x="1804" d="M2 559q0 430 178 725q215 354 621 354q383 0 680 -225q327 -247 327 -623q0 -65 -18 -159q-25 -129 -29 -158q-25 0 -26 -29q-4 -55 -29 -100q-47 -86 -172 -190h-8q-68 -47 -135 -101q-57 -25 -203 -69q-138 -43 -197 -76q10 -20 10 -47q0 -78 -36 -125q-51 -63 -50 -64 q-66 -80 -174 -80q-346 0 -557 322q-182 279 -182 645zM696 338q2 -4 13 -25q53 -98 151 -98q63 0 117 33q61 37 61 98q0 43 -76.5 100.5t-121.5 57.5q-55 0 -99.5 -54.5t-44.5 -111.5z" />
<glyph unicode="Q" horiz-adv-x="2035" d="M0 477q0 326 129 592q139 287 403 444l5 7q82 57 225 90q123 30 235 30h7q309 0 528 -249q211 -240 211 -555q0 -299 -45 -338q193 -111 229 -150q80 -84 80 -262q0 -162 -151.5 -327t-311.5 -165q-285 0 -407 220q-246 -123 -432 -123q-307 0 -512 243 q-193 229 -193 543zM1020 367q37 -25 90 -25q78 0 133 37q66 43 66 117q0 16 -26 50t-42 40q-41 16 -70 16q-66 0 -127 -45q-69 -48 -69 -109q0 -53 45 -81z" />
<glyph unicode="R" horiz-adv-x="1835" d="M0 483q0 246 76 463l-2 6q72 348 205 500q162 184 485 184q451 0 729 -178q330 -211 330 -639q0 -180 -117 -377q-121 -205 -281 -270q82 -49 113 -97t31 -141q0 -113 -113 -176q-92 -51 -215 -51q-104 0 -231 84l-127 86q-78 -139 -125 -176q-12 -12 -187 -107l-10 5 h-19q-131 0 -208 51q-197 133 -275 368q-59 180 -59 465zM754 463l4 -6q-2 -7 -2 -15q0 -31 32 -73q63 -84 179 -84q53 0 97 57.5t44 112.5t-80 166q-27 10 -57 10q-156 0 -213 -164z" />
<glyph unicode="S" horiz-adv-x="1648" d="M8 43q0 166 258 330q-57 57 -104 108q-77 84 -77 111q0 4 1 6q-61 123 -61 281q0 369 303 577q266 182 651 182q170 0 340 -82q207 -100 207 -247q0 -129 -56 -199q-39 -49 -161 -119q141 -98 225 -235q90 -148 90 -310q0 -346 -269.5 -600t-617.5 -254q-276 0 -473 93 q-256 121 -256 358z" />
<glyph unicode="T" horiz-adv-x="1777" d="M2 891l4 106l4 7q59 311 471 489q332 143 703 143q227 0 395 -100q189 -113 189 -304q0 -17 -1 -34q-18 -215 -211 -358q-72 -53 -73 -64l-45 -14q28 -174 28 -316v-10q0 -322 -123 -553q-154 -289 -448 -289q-295 0 -432 226q-111 182 -111 495q0 53 21 166 q23 123 45 156l-39 2l-6 4q-111 4 -232 72q-139 78 -139 171v5z" />
<glyph unicode="U" horiz-adv-x="2172" d="M-2 795q0 332 180 571q197 262 518 262q178 0 285 -129q74 -90 141 -285q119 199 226 293q152 133 338 133q215 0 350 -172q123 -158 123 -378q0 -51 -18.5 -153t-18.5 -153q0 -63 -74 -252q-68 -176 -115 -247l9 -13l-7 -10l-4 2q-47 -51 -190 -256q-195 -279 -455 -370 q-47 -10 -94 -25q-100 -18 -162 -19q-84 0 -133 25l-10 -2q-889 246 -889 1178z" />
<glyph unicode="V" horiz-adv-x="1927" d="M2 920q0 240 145 401q150 170 388 170q162 0 268 -76q66 -47 188 -196q94 215 180 301q122 120 321 120h3q221 0 293 -84l6 -2q94 -84 123 -165q22 -60 22 -193v-12q0 -143 -96 -457q-80 -256 -164 -451q-33 -72 -110 -210q-21 -38 -25 -48q-262 -426 -524 -426 q-203 0 -455 256q-199 201 -366 498q-197 344 -197 574z" />
<glyph unicode="W" horiz-adv-x="2770" d="M2 887q0 710 529 710h1q141 0 263 -133q59 -66 172 -256q37 109 163 236q139 141 244 141q180 0 492 -350l135 203q66 96 139 143q94 59 238 59q164 0 280 -182q104 -162 105 -336q0 -178 -74 -379q-34 -94 -34 -111q0 -3 1 -3q-168 -434 -278 -600q-223 -334 -533 -334 q-156 0 -293 63q-147 70 -231 191q-113 -174 -209 -250q-129 -102 -303 -102q-246 0 -455 280q-150 203 -252 504q-100 295 -100 506z" />
<glyph unicode="X" horiz-adv-x="2158" d="M0 111q0 164 68 295q16 33 65 112l14 21l7 -2q78 100 153 147q-137 111 -196 209q-70 117 -70 276q0 162 154 287q145 119 311 119q2 -2 33 -2h4q101 0 264 -98q35 -20 131 -131t111 -148q158 217 272 307q170 135 379 135q168 0 272 -79q117 -88 117 -252 q0 -190 -82 -364.5t-229 -297.5q348 -176 348 -547q0 -168 -140.5 -305t-310.5 -137q-174 0 -319 63q-125 53 -275 179q-195 -195 -350 -248l-4 -8q-123 -49 -268 -50q-248 0 -359 140q-100 125 -100 379z" />
<glyph unicode="Y" horiz-adv-x="1984" d="M0 993q0 203 134 359.5t333 156.5q158 0 273.5 -100t127.5 -256q231 487 748 487q254 0 358 -321l-4 -4q0 -18 8.5 -54t8.5 -49l4 -6v-63q0 -41 -49 -232h-7l-18 -49q-23 -59 -70 -112q-180 -201 -489 -308q49 -70 49 -235q0 -285 -129 -443q-141 -172 -420 -172 q-238 0 -373 181q-120 161 -120 403q0 119 28 223q-190 123 -280 244q-113 152 -113 350z" />
<glyph unicode="Z" horiz-adv-x="1488" d="M2 1034q0 98 27 142l-2 10q35 88 45 112q33 70 65 99q113 101 309 169q186 64 337 64h18q-6 10 16 10q311 0 461 -135q158 -143 158 -450q0 -125 -84 -250q-16 -25 -160 -219l6 -4q246 -31 246 -318q0 -98 -60 -223q-63 -131 -141 -182h-6l-4 -11q-133 -98 -219 -151 q-61 -37 -203 -72q-27 -6 -27 -12q-27 0 -77 -9.5t-76 -9.5q-215 0 -398 127q-203 141 -202 347q0 207 129 395q113 166 305 287q-182 25 -203 28q-131 25 -184 68q-76 61 -76 188z" />
<glyph unicode="[" horiz-adv-x="802" d="M0 1591q80 47 408 47q297 0 297 -73q0 -51 13 -155.5t13 -156.5q0 -4 -4 -67q-2 -39 0 -70q-61 -39 -219 -39q-23 0 -39 -14l-4 -45q-4 -45 -4 -107q0 -154 28 -348q4 -33 54 -342q41 -27 123 -26q12 0 36.5 -6.5t36.5 -6.5q39 -41 35 -149l-6 -201q-2 -74 -16 -174 q-55 -25 -265 -45q-184 -18 -282 -19q-33 0 -82 13l-39 49q-61 512 -61 1395q0 477 -23 540z" />
<glyph unicode="\" horiz-adv-x="989" d="M-2 1395q0 -203 260 -875q258 -664 395 -831q31 -39 92.5 -67t110.5 -28q174 0 174 226q0 63 -219 735t-272 774l4 6q0 49 -84 146q-96 111 -113 127q-88 31 -149 30q-123 0 -166 -67q-33 -51 -33 -176z" />
<glyph unicode="]" horiz-adv-x="833" d="M-2 33l4 -201q2 -68 16 -174q55 -25 265 -45q184 -18 282 -19q33 0 82 13l39 49q61 512 62 1395q0 477 22 540q-80 47 -405 47q-299 0 -299 -73q0 -51 -12.5 -155.5t-12.5 -156.5q0 -35 2 -67q4 -49 0 -70q63 -39 219 -39q23 0 39 -14l4 -45q4 -45 4 -107 q0 -154 -28 -348q-4 -33 -54 -342q-41 -27 -123 -26q-12 0 -35.5 -6.5t-35.5 -6.5q-37 -39 -35 -149z" />
<glyph unicode="^" horiz-adv-x="864" d="M86 1153q0 47 37 176l37 133q14 33 45 96.5t76 63.5q80 0 303 -137q231 -139 231 -205q0 -16 6 -51t6 -51q0 6 -4 -39l-4 -6q4 -23 -25.5 -50.5t-54.5 -27.5q-127 0 -250 67q-16 16 -55 39q-45 -72 -90 -141q-55 -66 -141 -66q-59 0 -92 74q-25 55 -25 125z" />
<glyph unicode="_" horiz-adv-x="1187" d="M6 -205q0 82 25 113q20 25 108 61q115 49 160 43q4 6 41 6q72 0 212 -6t212 -6q23 0 69 11.5t68 11.5q125 0 227 -52q125 -63 125 -176q0 -199 -422 -198q-39 0 -115.5 -2t-115.5 -2q-532 0 -575 131q-2 12 -11 28l-2 -4q-6 0 -6 41z" />
<glyph unicode="`" horiz-adv-x="577" d="M0 1133q0 -14 4 -41t4 -41q0 -150 82 -306q96 -184 232 -184q131 0 167 101q16 45 17 210q0 104 -41 240q-55 186 -62 225q-16 14 -47 15l-20 -9q-29 6 -72 0q-147 -23 -188 -45q-76 -43 -76 -165z" />
<glyph unicode="a" horiz-adv-x="2160" d="M2 152q0 352 154 704q145 338 401 598q33 33 96 80q76 57 103 57q35 0 128 24.5t140 24.5q322 0 594 -227q242 -201 387 -520.5t145 -634.5q0 -238 -114 -426q-132 -218 -357 -238l-10 5q-215 0 -385 84q-207 102 -242 294q-108 -45 -123 -45h-1q-178 -254 -365 -272 q-49 4 -145 18q-158 31 -265 125q-141 125 -141 349zM829 518q0 -35 21 -74q4 -10 14 -26q14 0 43 -37q89 -49 183 -49q29 0 40 20l11 2q18 16 51 61.5t33 61.5q0 10 -3 30.5t-3 31.5q0 80 -53.5 126t-133.5 46q-23 0 -67 -11q-35 -8 -85.5 -76.5t-50.5 -105.5z" />
<glyph unicode="b" horiz-adv-x="1701" d="M2 518q0 156 14 193l-2 8q59 264 156 573l6 -2q4 4 21 33q59 102 149 190q51 49 227 91q148 34 243 34h5q305 0 559 -141q295 -165 295 -442v-11l-2 -90q-2 -111 -84 -268q-72 -137 -162 -233q113 -100 134 -129q47 -68 47 -183q0 -231 -275 -399q-242 -147 -489 -148 q-248 0 -398 66q-168 76 -303 264l2 6q-47 102 -59 136q-31 76 -41 139l6 12l-8 2q-41 98 -41 299zM754 639q0 -115 131 -115q153 0 153 129q0 47 -30 74q-11 10 -68 43q-18 8 -31 8q-55 0 -105 -42t-50 -97zM813 285q0 -111 145 -111q53 0 100.5 37t47.5 88q0 133 -105 133 q-25 8 -28 8q-23 0 -64 -19.5t-51 -19.5q-45 -53 -45 -116z" />
<glyph unicode="c" horiz-adv-x="1708" d="M0 584q0 319 254 645q264 338 575 375l9 6q25 2 116 18q74 12 115 12q276 0 438 -124q178 -139 179 -408q0 -211 -170 -379q-113 -111 -351 -242l2 -4q152 -29 248 -112q115 -98 115 -240q0 -240 -195 -393q-180 -141 -426 -141q-229 0 -471 106q-293 129 -332 320l-8 6 q-98 176 -98 555z" />
<glyph unicode="d" horiz-adv-x="1665" d="M0 1137q0 92 35 249q14 6 61 74t105 99q104 53 303 69l6 -4l113 14q369 0 688 -262q338 -277 338 -635q0 -272 -137.5 -541.5t-356.5 -430.5q-231 -171 -489 -171q-14 0 -29 1l-4 -2h-17q-204 0 -305 94q-94 88 -143 307h-4q-23 80 -23 108q0 174 -70.5 515.5 t-70.5 515.5zM508 420q0 -123 166 -123q184 0 184 195q0 51 -56.5 104t-109.5 53q-14 0 -39.5 -14t-27.5 -27q-51 -4 -86 -73q-31 -57 -31 -115z" />
<glyph unicode="e" horiz-adv-x="1564" d="M2 481q0 532 223 826q251 331 765 331h3q160 0 240 -24q137 -43 137 -168q0 -102 -86 -186q-43 -43 -172 -123q145 -29 254 -111q131 -98 131 -231q0 -377 -297 -496q37 -23 143 -70q88 -39 146 -84l10 -4q47 -90 47 -114q0 -106 -96 -205q-77 -80 -190 -133v-4 q-227 -90 -408 -91h-152l-4 5q-53 -6 -102 -7q-592 0 -592 889z" />
<glyph unicode="f" horiz-adv-x="1636" d="M2 403q0 221 125 508q119 266 279 445q201 223 399 227l4 4q179 52 270 52q12 0 23 -1q242 -23 305 -47q162 -61 162 -239q0 -188 -262 -299q133 -23 225 -195q82 -151 82 -301q0 -242 -158 -414q-147 -162 -391 -221l8 -63q0 -123 -98 -197q-88 -68 -215 -68 q-213 0 -324 72l-8 -2q-231 158 -322 305q-104 170 -104 434z" />
<glyph unicode="g" horiz-adv-x="1935" d="M0 344q0 324 157.5 623t424.5 481q280 192 603 192h3q186 0 319 -102q143 -111 144 -293q0 -125 -64 -246q-12 -25 -10 -28q-78 -133 -197 -211q-94 -63 -264 -117l-12 -41q0 -74 12 -110q20 12 63.5 70.5t67.5 76.5l13 2q23 23 100 41q68 16 113 16q180 0 303 -198 q108 -177 108 -361v-16q0 -213 -160 -369q-166 -162 -374 -162q-102 0 -187.5 51.5t-128.5 141.5q-41 -25 -123 -72q-113 -65 -245 -65h-4q-322 0 -496 188q-166 182 -166 508z" />
<glyph unicode="h" horiz-adv-x="2373" d="M2 461q0 1016 660 1016q166 0 289.5 -130t123.5 -296q0 -27 -2 -52q49 23 154 54q31 80 92 240.5t137 242.5q96 104 230 104h12q324 -12 491 -233q154 -201 154 -535q0 -78 -25.5 -229t-25.5 -229q0 -33 -88 -254v-13q-145 -297 -217 -380q-150 -174 -394 -175 q-213 0 -331 146q-107 128 -107 330v22l-111 -8l-8 -8v-9q0 -147 -134 -263q-138 -120 -292 -119q-365 0 -501 223q-106 172 -107 555z" />
<glyph unicode="i" horiz-adv-x="1069" d="M0 1202q0 106 111.5 231.5t218.5 139.5l4 4q27 8 108 39q63 24 108 24h3q178 0 326 -112q158 -121 157 -295q0 -188 -162 -320q-151 -125 -344 -125q-266 0 -383 74q-147 94 -147 340zM18 -55q0 639 275 768q51 25 121 30q106 10 123 11q14 27 57 28q217 -61 311 -219 q82 -139 82 -379q0 -90 -18 -186l2 -4q-57 -197 -158 -293q-115 -109 -307 -109q-487 0 -488 353zM942 1223l23 -2v4l-23 2v-4z" />
<glyph unicode="j" horiz-adv-x="1454" d="M0 16q0 248 111 371q41 47 204 135q111 59 111 158q0 84 -28.5 251t-28.5 251q0 203 104 327q113 131 313 131q76 0 156 -43q20 -10 137 -86h6q14 -10 129 -131l3 -8q31 -35 83 -131t58 -137q29 -12 53 -172q19 -125 19 -197q0 -309 -125 -590q-131 -293 -396 -438 q-12 -6 -67 -37q-45 -26 -63 -26h-1l-4 -4q-168 -45 -190 -46q-166 0 -348 31h-13q-29 20 -102.5 92t-95.5 84q-25 127 -25 215z" />
<glyph unicode="k" horiz-adv-x="2113" d="M2 797v247l10 89q8 4 27 129q4 41 67 159q2 16 19 33q20 66 117 117q86 47 161 47q223 0 353.5 -80t218.5 -281q201 174 209 181q137 113 225 149q123 51 297 51q188 0 302 -108.5t114 -294.5v2q-2 0 -21 -131l-8 -8l-41 -135q-33 -106 -51 -117q-25 -98 -119 -254 l-149 -244l2 -12q80 -98 104 -141q42 -74 42 -143q0 -11 -1 -23l4 -9q-37 -160 -121 -210l-4 -11q-68 -59 -186 -59q-111 0 -277 84q-152 78 -243 168l-4 -2q-55 -397 -412 -398q-387 0 -539 439q-96 279 -96 766z" />
<glyph unicode="l" horiz-adv-x="1495" d="M2 575q0 1065 590 1065q459 0 459 -411q0 -68 -31 -295q-33 -248 -57 -268q63 -12 102 -13q211 0 401 -229q37 -74 37 -158q1 -18 -30 -172q-174 -256 -322 -362q-188 -137 -459 -138q-690 0 -690 981z" />
<glyph unicode="m" horiz-adv-x="2691" d="M0 207q0 215 109 547q121 367 290 602q206 284 424 284h2q156 0 324 -92q182 -98 233 -233h7q283 319 573 319q356 0 551 -422q153 -330 153 -730v-5q0 -362 -114 -538q-144 -220 -486 -220q-135 0 -360 152q-59 -61 -182 -182q-100 -92 -242 -92q-109 0 -233.5 64.5 t-190.5 152.5q-160 -137 -178 -150q-102 -70 -219 -70q-238 0 -361 197q-100 162 -100 416z" />
<glyph unicode="n" horiz-adv-x="2213" d="M0 281q0 86 39 257t39 257q0 201 158 440q172 260 362 260q145 0 297 -70q162 -72 238 -184q47 397 360 397q362 0 543 -356q143 -283 143 -684v-45q0 -334 -117 -578q-154 -321 -442 -321h-2q-344 0 -651 194q-143 -137 -195 -172q-116 -79 -241 -79h-3q-309 0 -432 196 q-96 156 -96 488z" />
<glyph unicode="o" horiz-adv-x="1794" d="M2 406q0 279 137 565q135 281 350 463q243 204 516 204h3q350 0 569 -305q192 -268 192 -624q0 -434 -260 -762q-281 -352 -704 -353q-326 0 -564.5 243t-238.5 569zM604 354q0 -18 10.5 -51t12.5 -45q109 -53 184 -53q74 0 125 41t51 112q0 58 -76 156h-4q-10 25 -69 25 q-8 0 -25.5 5t-26.5 5q-66 0 -124 -64.5t-58 -130.5z" />
<glyph unicode="p" horiz-adv-x="1798" d="M2 559q0 430 178 725q215 354 621 354q383 0 680 -225q327 -247 327 -623q0 -65 -18 -159q-25 -129 -29 -158q-25 0 -26 -29q-4 -55 -29 -100q-47 -86 -172 -190h-8q-68 -47 -135 -101q-57 -25 -203 -69q-138 -43 -197 -76q10 -20 10 -47q0 -78 -36 -125q-51 -63 -50 -64 q-66 -80 -174 -80q-346 0 -557 322q-182 279 -182 645zM696 338q2 -4 13 -25q53 -98 151 -98q63 0 117 33q61 37 61 98q0 43 -76.5 100.5t-121.5 57.5q-55 0 -99.5 -54.5t-44.5 -111.5z" />
<glyph unicode="q" horiz-adv-x="2035" d="M0 477q0 326 129 592q139 287 403 444l5 7q82 57 225 90q123 30 235 30h7q309 0 528 -249q211 -240 211 -555q0 -299 -45 -338q193 -111 229 -150q80 -84 80 -262q0 -162 -151.5 -327t-311.5 -165q-285 0 -407 220q-246 -123 -432 -123q-307 0 -512 243 q-193 229 -193 543zM1020 367q37 -25 90 -25q78 0 133 37q66 43 66 117q0 16 -26 50t-42 40q-41 16 -70 16q-66 0 -127 -45q-69 -48 -69 -109q0 -53 45 -81z" />
<glyph unicode="r" horiz-adv-x="1835" d="M0 483q0 246 76 463l-2 6q72 348 205 500q162 184 485 184q451 0 729 -178q330 -211 330 -639q0 -180 -117 -377q-121 -205 -281 -270q82 -49 113 -97t31 -141q0 -113 -113 -176q-92 -51 -215 -51q-104 0 -231 84l-127 86q-78 -139 -125 -176q-12 -12 -187 -107l-10 5 h-19q-131 0 -208 51q-197 133 -275 368q-59 180 -59 465zM754 463l4 -6q-2 -7 -2 -15q0 -31 32 -73q63 -84 179 -84q53 0 97 57.5t44 112.5t-80 166q-27 10 -57 10q-156 0 -213 -164z" />
<glyph unicode="s" horiz-adv-x="1648" d="M8 43q0 166 258 330q-57 57 -104 108q-77 84 -77 111q0 4 1 6q-61 123 -61 281q0 369 303 577q266 182 651 182q170 0 340 -82q207 -100 207 -247q0 -129 -56 -199q-39 -49 -161 -119q141 -98 225 -235q90 -148 90 -310q0 -346 -269.5 -600t-617.5 -254q-276 0 -473 93 q-256 121 -256 358z" />
<glyph unicode="t" horiz-adv-x="1779" d="M2 891l4 106l4 7q59 311 471 489q332 143 703 143q227 0 395 -100q189 -113 189 -304q0 -17 -1 -34q-18 -215 -211 -358q-72 -53 -73 -64l-45 -14q28 -174 28 -316v-10q0 -322 -123 -553q-154 -289 -448 -289q-295 0 -432 226q-111 182 -111 495q0 53 21 166 q23 123 45 156l-39 2l-6 4q-111 4 -232 72q-139 78 -139 171v5z" />
<glyph unicode="u" horiz-adv-x="2172" d="M-2 795q0 332 180 571q197 262 518 262q178 0 285 -129q74 -90 141 -285q119 199 226 293q152 133 338 133q215 0 350 -172q123 -158 123 -378q0 -51 -18.5 -153t-18.5 -153q0 -63 -74 -252q-68 -176 -115 -247l9 -13l-7 -10l-4 2q-47 -51 -190 -256q-195 -279 -455 -370 q-47 -10 -94 -25q-100 -18 -162 -19q-84 0 -133 25l-10 -2q-889 246 -889 1178z" />
<glyph unicode="v" horiz-adv-x="1927" d="M2 920q0 240 145 401q150 170 388 170q162 0 268 -76q66 -47 188 -196q94 215 180 301q122 120 321 120h3q221 0 293 -84l6 -2q94 -84 123 -165q22 -60 22 -193v-12q0 -143 -96 -457q-80 -256 -164 -451q-33 -72 -110 -210q-21 -38 -25 -48q-262 -426 -524 -426 q-203 0 -455 256q-199 201 -366 498q-197 344 -197 574z" />
<glyph unicode="w" horiz-adv-x="2770" d="M2 887q0 710 529 710h1q141 0 263 -133q59 -66 172 -256q37 109 163 236q139 141 244 141q180 0 492 -350l135 203q66 96 139 143q94 59 238 59q164 0 280 -182q104 -162 105 -336q0 -178 -74 -379q-34 -94 -34 -111q0 -3 1 -3q-168 -434 -278 -600q-223 -334 -533 -334 q-156 0 -293 63q-147 70 -231 191q-113 -174 -209 -250q-129 -102 -303 -102q-246 0 -455 280q-150 203 -252 504q-100 295 -100 506z" />
<glyph unicode="x" horiz-adv-x="2158" d="M0 111q0 164 68 295q16 33 65 112l14 21l7 -2q78 100 153 147q-137 111 -196 209q-70 117 -70 276q0 162 154 287q145 119 311 119q2 -2 33 -2h4q101 0 264 -98q35 -20 131 -131t111 -148q158 217 272 307q170 135 379 135q168 0 272 -79q117 -88 117 -252 q0 -190 -82 -364.5t-229 -297.5q348 -176 348 -547q0 -168 -140.5 -305t-310.5 -137q-174 0 -319 63q-125 53 -275 179q-195 -195 -350 -248l-4 -8q-123 -49 -268 -50q-248 0 -359 140q-100 125 -100 379z" />
<glyph unicode="y" horiz-adv-x="1984" d="M0 993q0 201 133 355q136 161 334 161h2q156 0 271.5 -100t127.5 -256q231 487 748 487q254 0 358 -321l-4 -4q0 -18 8.5 -54t8.5 -49l4 -6v-63q0 -41 -49 -232h-7l-18 -49q-23 -59 -70 -112q-166 -186 -489 -308q49 -70 49 -235q0 -285 -129 -443q-141 -172 -420 -172 q-238 0 -373 181q-120 161 -120 403q0 119 28 223q-190 123 -280 244q-113 152 -113 350z" />
<glyph unicode="z" horiz-adv-x="1488" d="M2 1034q0 98 27 142l-2 10q35 88 45 112q33 70 65 99q113 101 309 169q186 64 337 64h18q-6 10 16 10q311 0 461 -135q158 -143 158 -450q0 -125 -84 -250q-16 -25 -160 -219l6 -4q246 -31 246 -318q0 -98 -60 -223q-63 -131 -141 -182h-6l-4 -11q-133 -98 -219 -151 q-61 -37 -203 -72q-27 -6 -27 -12q-27 0 -77 -9.5t-76 -9.5q-215 0 -398 127q-203 141 -202 347q0 207 129 395q113 166 305 287q-182 25 -203 28q-131 25 -184 68q-76 61 -76 188z" />
<glyph unicode="{" horiz-adv-x="1320" d="M119 608q0 35 28 88q25 47 54 76q23 23 151 82q115 53 123 76q70 207 238 432q205 276 372 276q137 0 217 -82t80 -219q0 -74 -129 -231q-29 -35 -231 -260q-121 -133 -111 -164q-131 -41 -131 -111q0 -55 109 -118q49 -29 67 -109q25 -100 43 -121l189 -198 q131 -141 131 -220q0 -96 -86 -157q-78 -55 -178 -56q-248 0 -430 203q-170 190 -195 447q0 53 -16 145q-86 41 -174 80q-121 70 -121 141z" />
<glyph unicode="}" horiz-adv-x="1363" d="M119 1337q0 -76 127 -231q16 -18 231 -260q121 -135 113 -164q129 -41 129 -111q0 -55 -107 -118q-49 -29 -69 -109q-25 -98 -41 -121q-63 -66 -191 -198q-131 -139 -131 -220q0 -96 88 -157q78 -55 178 -56q248 0 431 205q170 193 192 445q4 41 16 145q88 41 177 80 q121 70 120 141q0 31 -28.5 85.5t-53 78t-153.5 82.5q-115 53 -123 76q-72 211 -236 432q-205 276 -374 276q-137 0 -216 -82t-79 -219z" />
<glyph unicode="&#xad;" d="M2 719q0 82 31 117q18 20 75.5 39.5t77.5 37.5q8 2 54 15q35 10 55 8l6 6q39 4 193 27q123 18 190 18q133 0 231 -53q121 -63 121 -186q0 -129 -43 -185q-102 -131 -684 -131q-176 0 -241.5 57.5t-65.5 229.5z" />
<glyph unicode="&#x2000;" horiz-adv-x="822" />
<glyph unicode="&#x2001;" horiz-adv-x="1645" />
<glyph unicode="&#x2002;" horiz-adv-x="822" />
<glyph unicode="&#x2003;" horiz-adv-x="1645" />
<glyph unicode="&#x2004;" horiz-adv-x="548" />
<glyph unicode="&#x2005;" horiz-adv-x="411" />
<glyph unicode="&#x2006;" horiz-adv-x="274" />
<glyph unicode="&#x2007;" horiz-adv-x="274" />
<glyph unicode="&#x2008;" horiz-adv-x="205" />
<glyph unicode="&#x2009;" horiz-adv-x="329" />
<glyph unicode="&#x200a;" horiz-adv-x="91" />
<glyph unicode="&#x2010;" d="M2 719q0 82 31 117q18 20 75.5 39.5t77.5 37.5q8 2 54 15q35 10 55 8l6 6q39 4 193 27q123 18 190 18q133 0 231 -53q121 -63 121 -186q0 -129 -43 -185q-102 -131 -684 -131q-176 0 -241.5 57.5t-65.5 229.5z" />
<glyph unicode="&#x2011;" d="M2 719q0 82 31 117q18 20 75.5 39.5t77.5 37.5q8 2 54 15q35 10 55 8l6 6q39 4 193 27q123 18 190 18q133 0 231 -53q121 -63 121 -186q0 -129 -43 -185q-102 -131 -684 -131q-176 0 -241.5 57.5t-65.5 229.5z" />
<glyph unicode="&#x2012;" d="M2 719q0 82 31 117q18 20 75.5 39.5t77.5 37.5q8 2 54 15q35 10 55 8l6 6q39 4 193 27q123 18 190 18q133 0 231 -53q121 -63 121 -186q0 -129 -43 -185q-102 -131 -684 -131q-176 0 -241.5 57.5t-65.5 229.5z" />
<glyph unicode="&#x2013;" horiz-adv-x="1106" d="M2 719q0 82 31 117q18 20 74.5 39.5t76.5 37.5q8 2 54 15q34 10 54 8l6 6q39 4 191 27q122 18 188 18q132 0 229 -53q120 -63 120 -186q0 -129 -43 -185q-101 -131 -677 -131q-174 0 -239 57.5t-65 229.5z" />
<glyph unicode="&#x2014;" horiz-adv-x="2130" d="M2 719q0 82 61 117q36 20 150 39.5t153 37.5q16 2 107 15q70 10 109 8l12 6q77 4 382 27q244 18 377 18q263 0 457 -53q240 -63 240 -186q0 -129 -85 -185q-202 -131 -1355 -131q-349 0 -478.5 57.5t-129.5 229.5z" />
<glyph unicode="&#x202f;" horiz-adv-x="329" />
<glyph unicode="&#x205f;" horiz-adv-x="411" />
</font>
</defs>
</svg>
